<!-- Generated by IcoMoon.io -->
<svg version="1.1" xmlns="http://www.w3.org/2000/svg" width="1024" height="1024" viewBox="0 0 1024 1024">
<title></title>
<g id="icomoon-ignore">
</g>
<path fill="#000" d="M205.129 639.964h239.353v77.189h-239.353c-113.106-0.012-205.129-92.035-205.129-205.153s92.023-205.141 205.129-205.141h239.353v77.165h-239.353c-70.54 0-127.952 57.399-127.952 127.964s57.399 127.976 127.952 127.976zM818.895 306.859h-239.365v77.165h239.365c70.54 0 127.927 57.399 127.927 127.964s-57.387 127.964-127.927 127.964h-239.365v77.189h239.365c113.082 0 205.105-92.023 205.105-205.153s-92.035-205.129-205.105-205.129zM220.651 512c0 26.524 21.7 48.236 48.236 48.236h486.25c26.524 0 48.224-21.712 48.224-48.236s-21.7-48.224-48.224-48.224h-486.25c-26.536-0.012-48.236 21.7-48.236 48.224z"></path>
</svg>
