<!-- Generated by IcoMoon.io -->
<svg version="1.1" xmlns="http://www.w3.org/2000/svg" width="1024" height="1024" viewBox="0 0 1024 1024">
<title></title>
<g id="icomoon-ignore">
</g>
<path fill="#000" d="M334.893 916.313c369.672-9.209 571.548-316.764 571.548-584.016 0-8.908-0.193-17.772-0.593-26.57 40.407-28.949 75.494-65.12 103.222-106.288-37.101 16.327-76.964 27.359-118.812 32.323 42.706-25.411 75.513-65.647 90.958-113.597-39.978 23.526-84.25 40.613-131.365 49.822-37.757-39.9-91.517-64.852-151.007-64.852-114.258 0-206.893 91.943-206.893 205.349 0 16.092 1.836 31.753 5.368 46.778-171.945-8.558-324.374-90.311-426.416-214.53-17.806 30.327-28.013 65.599-28.013 103.23 0 71.223 36.528 134.079 92.042 170.906-33.921-1.063-65.817-10.305-93.719-25.679-0.014 0.857-0.014 1.728-0.014 2.585 0 99.492 71.311 182.474 165.955 201.343-17.363 4.691-35.631 7.213-54.512 7.213-13.32 0-26.287-1.302-38.923-3.695 26.336 81.576 102.726 140.942 193.269 142.608-70.815 55.073-160.014 87.904-256.928 87.904-16.625 0-33.029-0.967-49.144-2.853v0.11c88.336 56.164 192.677 89.646 304.809 91.91h29.164z"></path>
</svg>
